<svg xmlns="http://www.w3.org/2000/svg" viewBox="0 0 512 512" width="512" height="512">
  <defs>
    <linearGradient id="bg" x1="0%" y1="0%" x2="0%" y2="100%">
      <stop offset="0%" stop-color="#14213D"/>
      <stop offset="100%" stop-color="#0A0E1A"/>
    </linearGradient>
  </defs>

  <!-- background -->
  <rect width="512" height="512" rx="92" fill="url(#bg)"/>

  <!-- TV body -->
  <rect x="61" y="82" width="390" height="235" rx="22" fill="#2A313A"/>
  <rect x="79" y="100" width="354" height="199" rx="12" fill="#080C14"/>

  <!-- TV stand -->
  <polygon points="180,317 332,317 290,348 222,348" fill="#2A313A"/>

  <!-- WiFi signal -->
  <g fill="none" stroke-linecap="round">
    <path d="M 176 178 A 80 80 0 0 1 336 178" stroke="#3B82F6" stroke-width="11"/>
    <path d="M 200 198 A 56 56 0 0 1 312 198" stroke="#22C55E" stroke-width="11"/>
    <path d="M 224 218 A 32 32 0 0 1 288 218" stroke="#3B82F6" stroke-width="11"/>
  </g>
  <circle cx="256" cy="238" r="11" fill="#3B82F6"/>

  <!-- Remote control -->
  <rect x="297" y="237" width="154" height="222" rx="31" fill="#232936" stroke="#343C4E" stroke-width="3"/>
  <circle cx="374" cy="276" r="25" fill="#EF4444"/>
  <circle cx="374" cy="357" r="51" fill="#3B82F6"/>
  <circle cx="374" cy="357" r="16" fill="#232936"/>
  <rect x="312" y="421" width="53" height="16" rx="8" fill="#343C4E"/>
  <rect x="383" y="421" width="53" height="16" rx="8" fill="#343C4E"/>
</svg>
